<?xml version="1.0" encoding="UTF-8"?>
<svg xmlns:xlink="http://www.w3.org/1999/xlink" aria-roledescription="sequence" role="graphics-document document" viewBox="-97 -10 2960.5 3026" style="max-width: 100%;" xmlns="http://www.w3.org/2000/svg" width="100%" id="mermaid-svg-3" height="100%"><g><rect class="actor actor-bottom" ry="3" rx="3" name="All" height="65" width="150" stroke="#666" fill="#eaeaea" y="2940" x="2663.5"></rect><text style="text-anchor: middle; font-size: 16px; font-weight: 400;" class="actor actor-box" alignment-baseline="central" dominant-baseline="central" y="2972.5" x="2738.5"><tspan dy="0" x="2738.5">All</tspan></text></g><g><rect class="actor actor-bottom" ry="3" rx="3" name="Actuator" height="65" width="150" stroke="#666" fill="#eaeaea" y="2940" x="2463.5"></rect><text style="text-anchor: middle; font-size: 16px; font-weight: 400;" class="actor actor-box" alignment-baseline="central" dominant-baseline="central" y="2972.5" x="2538.5"><tspan dy="0" x="2538.5">Actuator Control</tspan></text></g><g><rect class="actor actor-bottom" ry="3" rx="3" name="Diag" height="65" width="161" stroke="#666" fill="#eaeaea" y="2940" x="2209"></rect><text style="text-anchor: middle; font-size: 16px; font-weight: 400;" class="actor actor-box" alignment-baseline="central" dominant-baseline="central" y="2972.5" x="2289.5"><tspan dy="0" x="2289.5">Diagnostic System</tspan></text></g><g><rect class="actor actor-bottom" ry="3" rx="3" name="Trans" height="65" width="150" stroke="#666" fill="#eaeaea" y="2940" x="2009"></rect><text style="text-anchor: middle; font-size: 16px; font-weight: 400;" class="actor actor-box" alignment-baseline="central" dominant-baseline="central" y="2972.5" x="2084"><tspan dy="0" x="2084">Transmission Ctrl</tspan></text></g><g><rect class="actor actor-bottom" ry="3" rx="3" name="EMS" height="65" width="179" stroke="#666" fill="#eaeaea" y="2940" x="1749.5"></rect><text style="text-anchor: middle; font-size: 16px; font-weight: 400;" class="actor actor-box" alignment-baseline="central" dominant-baseline="central" y="2972.5" x="1839"><tspan dy="0" x="1839">Energy Management</tspan></text></g><g><rect class="actor actor-bottom" ry="3" rx="3" name="CVT" height="65" width="187" stroke="#666" fill="#eaeaea" y="2940" x="1460.5"></rect><text style="text-anchor: middle; font-size: 16px; font-weight: 400;" class="actor actor-box" alignment-baseline="central" dominant-baseline="central" y="2972.5" x="1554"><tspan dy="0" x="1554">CVT Protocol Adapter</tspan></text></g><g><rect class="actor actor-bottom" ry="3" rx="3" name="Predict" height="65" width="168" stroke="#666" fill="#eaeaea" y="2940" x="1210"></rect><text style="text-anchor: middle; font-size: 16px; font-weight: 400;" class="actor actor-box" alignment-baseline="central" dominant-baseline="central" y="2972.5" x="1294"><tspan dy="0" x="1294">Predictive Analytics</tspan></text></g><g><rect class="actor actor-bottom" ry="3" rx="3" name="EKF" height="65" width="150" stroke="#666" fill="#eaeaea" y="2940" x="1010"></rect><text style="text-anchor: middle; font-size: 16px; font-weight: 400;" class="actor actor-box" alignment-baseline="central" dominant-baseline="central" y="2972.5" x="1085"><tspan dy="0" x="1085">State Estimator</tspan></text></g><g><rect class="actor actor-bottom" ry="3" rx="3" name="Detect" height="65" width="150" stroke="#666" fill="#eaeaea" y="2940" x="810"></rect><text style="text-anchor: middle; font-size: 16px; font-weight: 400;" class="actor actor-box" alignment-baseline="central" dominant-baseline="central" y="2972.5" x="885"><tspan dy="0" x="885">Load Detector</tspan></text></g><g><rect class="actor actor-bottom" ry="3" rx="3" name="Sensor" height="65" width="150" stroke="#666" fill="#eaeaea" y="2940" x="558"></rect><text style="text-anchor: middle; font-size: 16px; font-weight: 400;" class="actor actor-box" alignment-baseline="central" dominant-baseline="central" y="2972.5" x="633"><tspan dy="0" x="633">Sensor Fusion</tspan></text></g><g><rect class="actor actor-bottom" ry="3" rx="3" name="CAN" height="65" width="161" stroke="#666" fill="#eaeaea" y="2940" x="288.5"></rect><text style="text-anchor: middle; font-size: 16px; font-weight: 400;" class="actor actor-box" alignment-baseline="central" dominant-baseline="central" y="2972.5" x="369"><tspan dy="0" x="369">CAN Bus Manager</tspan></text></g><g><rect class="actor actor-bottom" ry="3" rx="3" name="OS" height="65" width="150" stroke="#666" fill="#eaeaea" y="2940" x="0"></rect><text style="text-anchor: middle; font-size: 16px; font-weight: 400;" class="actor actor-box" alignment-baseline="central" dominant-baseline="central" y="2972.5" x="75"><tspan dy="0" x="75">RTOS Scheduler</tspan></text></g><g><line name="All" stroke="#999" stroke-width="0.5px" class="actor-line 200" y2="2940" x2="2738.5" y1="65" x1="2738.5" id="actor11"></line><g id="root-11"><rect class="actor actor-top" ry="3" rx="3" name="All" height="65" width="150" stroke="#666" fill="#eaeaea" y="0" x="2663.5"></rect><text style="text-anchor: middle; font-size: 16px; font-weight: 400;" class="actor actor-box" alignment-baseline="central" dominant-baseline="central" y="32.5" x="2738.5"><tspan dy="0" x="2738.5">All</tspan></text></g></g><g><line name="Actuator" stroke="#999" stroke-width="0.5px" class="actor-line 200" y2="2940" x2="2538.5" y1="65" x1="2538.5" id="actor10"></line><g id="root-10"><rect class="actor actor-top" ry="3" rx="3" name="Actuator" height="65" width="150" stroke="#666" fill="#eaeaea" y="0" x="2463.5"></rect><text style="text-anchor: middle; font-size: 16px; font-weight: 400;" class="actor actor-box" alignment-baseline="central" dominant-baseline="central" y="32.5" x="2538.5"><tspan dy="0" x="2538.5">Actuator Control</tspan></text></g></g><g><line name="Diag" stroke="#999" stroke-width="0.5px" class="actor-line 200" y2="2940" x2="2289.5" y1="65" x1="2289.5" id="actor9"></line><g id="root-9"><rect class="actor actor-top" ry="3" rx="3" name="Diag" height="65" width="161" stroke="#666" fill="#eaeaea" y="0" x="2209"></rect><text style="text-anchor: middle; font-size: 16px; font-weight: 400;" class="actor actor-box" alignment-baseline="central" dominant-baseline="central" y="32.5" x="2289.5"><tspan dy="0" x="2289.5">Diagnostic System</tspan></text></g></g><g><line name="Trans" stroke="#999" stroke-width="0.5px" class="actor-line 200" y2="2940" x2="2084" y1="65" x1="2084" id="actor8"></line><g id="root-8"><rect class="actor actor-top" ry="3" rx="3" name="Trans" height="65" width="150" stroke="#666" fill="#eaeaea" y="0" x="2009"></rect><text style="text-anchor: middle; font-size: 16px; font-weight: 400;" class="actor actor-box" alignment-baseline="central" dominant-baseline="central" y="32.5" x="2084"><tspan dy="0" x="2084">Transmission Ctrl</tspan></text></g></g><g><line name="EMS" stroke="#999" stroke-width="0.5px" class="actor-line 200" y2="2940" x2="1839" y1="65" x1="1839" id="actor7"></line><g id="root-7"><rect class="actor actor-top" ry="3" rx="3" name="EMS" height="65" width="179" stroke="#666" fill="#eaeaea" y="0" x="1749.5"></rect><text style="text-anchor: middle; font-size: 16px; font-weight: 400;" class="actor actor-box" alignment-baseline="central" dominant-baseline="central" y="32.5" x="1839"><tspan dy="0" x="1839">Energy Management</tspan></text></g></g><g><line name="CVT" stroke="#999" stroke-width="0.5px" class="actor-line 200" y2="2940" x2="1554" y1="65" x1="1554" id="actor6"></line><g id="root-6"><rect class="actor actor-top" ry="3" rx="3" name="CVT" height="65" width="187" stroke="#666" fill="#eaeaea" y="0" x="1460.5"></rect><text style="text-anchor: middle; font-size: 16px; font-weight: 400;" class="actor actor-box" alignment-baseline="central" dominant-baseline="central" y="32.5" x="1554"><tspan dy="0" x="1554">CVT Protocol Adapter</tspan></text></g></g><g><line name="Predict" stroke="#999" stroke-width="0.5px" class="actor-line 200" y2="2940" x2="1294" y1="65" x1="1294" id="actor5"></line><g id="root-5"><rect class="actor actor-top" ry="3" rx="3" name="Predict" height="65" width="168" stroke="#666" fill="#eaeaea" y="0" x="1210"></rect><text style="text-anchor: middle; font-size: 16px; font-weight: 400;" class="actor actor-box" alignment-baseline="central" dominant-baseline="central" y="32.5" x="1294"><tspan dy="0" x="1294">Predictive Analytics</tspan></text></g></g><g><line name="EKF" stroke="#999" stroke-width="0.5px" class="actor-line 200" y2="2940" x2="1085" y1="65" x1="1085" id="actor4"></line><g id="root-4"><rect class="actor actor-top" ry="3" rx="3" name="EKF" height="65" width="150" stroke="#666" fill="#eaeaea" y="0" x="1010"></rect><text style="text-anchor: middle; font-size: 16px; font-weight: 400;" class="actor actor-box" alignment-baseline="central" dominant-baseline="central" y="32.5" x="1085"><tspan dy="0" x="1085">State Estimator</tspan></text></g></g><g><line name="Detect" stroke="#999" stroke-width="0.5px" class="actor-line 200" y2="2940" x2="885" y1="65" x1="885" id="actor3"></line><g id="root-3"><rect class="actor actor-top" ry="3" rx="3" name="Detect" height="65" width="150" stroke="#666" fill="#eaeaea" y="0" x="810"></rect><text style="text-anchor: middle; font-size: 16px; font-weight: 400;" class="actor actor-box" alignment-baseline="central" dominant-baseline="central" y="32.5" x="885"><tspan dy="0" x="885">Load Detector</tspan></text></g></g><g><line name="Sensor" stroke="#999" stroke-width="0.5px" class="actor-line 200" y2="2940" x2="633" y1="65" x1="633" id="actor2"></line><g id="root-2"><rect class="actor actor-top" ry="3" rx="3" name="Sensor" height="65" width="150" stroke="#666" fill="#eaeaea" y="0" x="558"></rect><text style="text-anchor: middle; font-size: 16px; font-weight: 400;" class="actor actor-box" alignment-baseline="central" dominant-baseline="central" y="32.5" x="633"><tspan dy="0" x="633">Sensor Fusion</tspan></text></g></g><g><line name="CAN" stroke="#999" stroke-width="0.5px" class="actor-line 200" y2="2940" x2="369" y1="65" x1="369" id="actor1"></line><g id="root-1"><rect class="actor actor-top" ry="3" rx="3" name="CAN" height="65" width="161" stroke="#666" fill="#eaeaea" y="0" x="288.5"></rect><text style="text-anchor: middle; font-size: 16px; font-weight: 400;" class="actor actor-box" alignment-baseline="central" dominant-baseline="central" y="32.5" x="369"><tspan dy="0" x="369">CAN Bus Manager</tspan></text></g></g><g><line name="OS" stroke="#999" stroke-width="0.5px" class="actor-line 200" y2="2940" x2="75" y1="65" x1="75" id="actor0"></line><g id="root-0"><rect class="actor actor-top" ry="3" rx="3" name="OS" height="65" width="150" stroke="#666" fill="#eaeaea" y="0" x="0"></rect><text style="text-anchor: middle; font-size: 16px; font-weight: 400;" class="actor actor-box" alignment-baseline="central" dominant-baseline="central" y="32.5" x="75"><tspan dy="0" x="75">RTOS Scheduler</tspan></text></g></g><style>#mermaid-svg-3{font-family:"trebuchet ms",verdana,arial,sans-serif;font-size:16px;fill:#333;}@keyframes edge-animation-frame{from{stroke-dashoffset:0;}}@keyframes dash{to{stroke-dashoffset:0;}}#mermaid-svg-3 .edge-animation-slow{stroke-dasharray:9,5!important;stroke-dashoffset:900;animation:dash 50s linear infinite;stroke-linecap:round;}#mermaid-svg-3 .edge-animation-fast{stroke-dasharray:9,5!important;stroke-dashoffset:900;animation:dash 20s linear infinite;stroke-linecap:round;}#mermaid-svg-3 .error-icon{fill:#552222;}#mermaid-svg-3 .error-text{fill:#552222;stroke:#552222;}#mermaid-svg-3 .edge-thickness-normal{stroke-width:1px;}#mermaid-svg-3 .edge-thickness-thick{stroke-width:3.5px;}#mermaid-svg-3 .edge-pattern-solid{stroke-dasharray:0;}#mermaid-svg-3 .edge-thickness-invisible{stroke-width:0;fill:none;}#mermaid-svg-3 .edge-pattern-dashed{stroke-dasharray:3;}#mermaid-svg-3 .edge-pattern-dotted{stroke-dasharray:2;}#mermaid-svg-3 .marker{fill:#333333;stroke:#333333;}#mermaid-svg-3 .marker.cross{stroke:#333333;}#mermaid-svg-3 svg{font-family:"trebuchet ms",verdana,arial,sans-serif;font-size:16px;}#mermaid-svg-3 p{margin:0;}#mermaid-svg-3 .actor{stroke:hsl(259.6261682243, 59.7765363128%, 87.9019607843%);fill:#ECECFF;}#mermaid-svg-3 text.actor&gt;tspan{fill:black;stroke:none;}#mermaid-svg-3 .actor-line{stroke:hsl(259.6261682243, 59.7765363128%, 87.9019607843%);}#mermaid-svg-3 .messageLine0{stroke-width:1.5;stroke-dasharray:none;stroke:#333;}#mermaid-svg-3 .messageLine1{stroke-width:1.5;stroke-dasharray:2,2;stroke:#333;}#mermaid-svg-3 #arrowhead path{fill:#333;stroke:#333;}#mermaid-svg-3 .sequenceNumber{fill:white;}#mermaid-svg-3 #sequencenumber{fill:#333;}#mermaid-svg-3 #crosshead path{fill:#333;stroke:#333;}#mermaid-svg-3 .messageText{fill:#333;stroke:none;}#mermaid-svg-3 .labelBox{stroke:hsl(259.6261682243, 59.7765363128%, 87.9019607843%);fill:#ECECFF;}#mermaid-svg-3 .labelText,#mermaid-svg-3 .labelText&gt;tspan{fill:black;stroke:none;}#mermaid-svg-3 .loopText,#mermaid-svg-3 .loopText&gt;tspan{fill:black;stroke:none;}#mermaid-svg-3 .loopLine{stroke-width:2px;stroke-dasharray:2,2;stroke:hsl(259.6261682243, 59.7765363128%, 87.9019607843%);fill:hsl(259.6261682243, 59.7765363128%, 87.9019607843%);}#mermaid-svg-3 .note{stroke:#aaaa33;fill:#fff5ad;}#mermaid-svg-3 .noteText,#mermaid-svg-3 .noteText&gt;tspan{fill:black;stroke:none;}#mermaid-svg-3 .activation0{fill:#f4f4f4;stroke:#666;}#mermaid-svg-3 .activation1{fill:#f4f4f4;stroke:#666;}#mermaid-svg-3 .activation2{fill:#f4f4f4;stroke:#666;}#mermaid-svg-3 .actorPopupMenu{position:absolute;}#mermaid-svg-3 .actorPopupMenuPanel{position:absolute;fill:#ECECFF;box-shadow:0px 8px 16px 0px rgba(0,0,0,0.2);filter:drop-shadow(3px 5px 2px rgb(0 0 0 / 0.4));}#mermaid-svg-3 .actor-man line{stroke:hsl(259.6261682243, 59.7765363128%, 87.9019607843%);fill:#ECECFF;}#mermaid-svg-3 .actor-man circle,#mermaid-svg-3 line{stroke:hsl(259.6261682243, 59.7765363128%, 87.9019607843%);fill:#ECECFF;stroke-width:2px;}#mermaid-svg-3 :root{--mermaid-font-family:"trebuchet ms",verdana,arial,sans-serif;}</style><g></g><defs><symbol height="24" width="24" id="computer"><path d="M2 2v13h20v-13h-20zm18 11h-16v-9h16v9zm-10.228 6l.466-1h3.524l.467 1h-4.457zm14.228 3h-24l2-6h2.104l-1.33 4h18.45l-1.297-4h2.073l2 6zm-5-10h-14v-7h14v7z" transform="scale(.5)"></path></symbol></defs><defs><symbol clip-rule="evenodd" fill-rule="evenodd" id="database"><path d="M12.258.001l.256.004.255.005.253.008.251.01.249.012.247.015.246.016.242.019.241.02.239.023.236.024.233.027.231.028.229.031.225.032.223.034.22.036.217.038.214.04.211.041.208.043.205.045.201.046.198.048.194.05.191.051.187.053.183.054.18.056.175.057.172.059.168.06.163.061.16.063.155.064.15.066.074.033.073.033.071.034.07.034.069.035.068.035.067.035.066.035.064.036.064.036.062.036.06.036.06.037.058.037.058.037.055.038.055.038.053.038.052.038.051.039.05.039.048.039.047.039.045.04.044.04.043.04.041.04.04.041.039.041.037.041.036.041.034.041.033.042.032.042.03.042.029.042.027.042.026.043.024.043.023.043.021.043.02.043.018.044.017.043.015.044.013.044.012.044.011.045.009.044.007.045.006.045.004.045.002.045.001.045v17l-.001.045-.002.045-.004.045-.006.045-.007.045-.009.044-.011.045-.012.044-.013.044-.015.044-.017.043-.018.044-.02.043-.021.043-.023.043-.024.043-.026.043-.027.042-.029.042-.03.042-.032.042-.033.042-.034.041-.036.041-.037.041-.039.041-.04.041-.041.04-.043.04-.044.04-.045.04-.047.039-.048.039-.05.039-.051.039-.052.038-.053.038-.055.038-.055.038-.058.037-.058.037-.06.037-.06.036-.062.036-.064.036-.064.036-.066.035-.067.035-.068.035-.069.035-.07.034-.071.034-.073.033-.074.033-.15.066-.155.064-.16.063-.163.061-.168.06-.172.059-.175.057-.18.056-.183.054-.187.053-.191.051-.194.05-.198.048-.201.046-.205.045-.208.043-.211.041-.214.04-.217.038-.22.036-.223.034-.225.032-.229.031-.231.028-.233.027-.236.024-.239.023-.241.02-.242.019-.246.016-.247.015-.249.012-.251.01-.253.008-.255.005-.256.004-.258.001-.258-.001-.256-.004-.255-.005-.253-.008-.251-.01-.249-.012-.247-.015-.245-.016-.243-.019-.241-.02-.238-.023-.236-.024-.234-.027-.231-.028-.228-.031-.226-.032-.223-.034-.22-.036-.217-.038-.214-.04-.211-.041-.208-.043-.204-.045-.201-.046-.198-.048-.195-.05-.19-.051-.187-.053-.184-.054-.179-.056-.176-.057-.172-.059-.167-.06-.164-.061-.159-.063-.155-.064-.151-.066-.074-.033-.072-.033-.072-.034-.07-.034-.069-.035-.068-.035-.067-.035-.066-.035-.064-.036-.063-.036-.062-.036-.061-.036-.06-.037-.058-.037-.057-.037-.056-.038-.055-.038-.053-.038-.052-.038-.051-.039-.049-.039-.049-.039-.046-.039-.046-.04-.044-.04-.043-.04-.041-.04-.04-.041-.039-.041-.037-.041-.036-.041-.034-.041-.033-.042-.032-.042-.03-.042-.029-.042-.027-.042-.026-.043-.024-.043-.023-.043-.021-.043-.02-.043-.018-.044-.017-.043-.015-.044-.013-.044-.012-.044-.011-.045-.009-.044-.007-.045-.006-.045-.004-.045-.002-.045-.001-.045v-17l.001-.045.002-.045.004-.045.006-.045.007-.045.009-.044.011-.045.012-.044.013-.044.015-.044.017-.043.018-.044.02-.043.021-.043.023-.043.024-.043.026-.043.027-.042.029-.042.03-.042.032-.042.033-.042.034-.041.036-.041.037-.041.039-.041.04-.041.041-.04.043-.04.044-.04.046-.04.046-.039.049-.039.049-.039.051-.039.052-.038.053-.038.055-.038.056-.038.057-.037.058-.037.06-.037.061-.036.062-.036.063-.036.064-.036.066-.035.067-.035.068-.035.069-.035.07-.034.072-.034.072-.033.074-.033.151-.066.155-.064.159-.063.164-.061.167-.06.172-.059.176-.057.179-.056.184-.054.187-.053.19-.051.195-.05.198-.048.201-.046.204-.045.208-.043.211-.041.214-.04.217-.038.22-.036.223-.034.226-.032.228-.031.231-.028.234-.027.236-.024.238-.023.241-.02.243-.019.245-.016.247-.015.249-.012.251-.01.253-.008.255-.005.256-.004.258-.001.258.001zm-9.258 20.499v.01l.001.021.003.021.004.022.005.021.006.022.007.022.009.023.01.022.011.023.012.023.013.023.015.023.016.024.017.023.018.024.019.024.021.024.022.025.023.024.024.025.052.049.056.05.061.051.066.051.07.051.075.051.079.052.084.052.088.052.092.052.097.052.102.051.105.052.11.052.114.051.119.051.123.051.127.05.131.05.135.05.139.048.144.049.147.047.152.047.155.047.16.045.163.045.167.043.171.043.176.041.178.041.183.039.187.039.19.037.194.035.197.035.202.033.204.031.209.03.212.029.216.027.219.025.222.024.226.021.23.02.233.018.236.016.24.015.243.012.246.01.249.008.253.005.256.004.259.001.26-.001.257-.004.254-.005.25-.008.247-.011.244-.012.241-.014.237-.016.233-.018.231-.021.226-.021.224-.024.22-.026.216-.027.212-.028.21-.031.205-.031.202-.034.198-.034.194-.036.191-.037.187-.039.183-.04.179-.04.175-.042.172-.043.168-.044.163-.045.16-.046.155-.046.152-.047.148-.048.143-.049.139-.049.136-.05.131-.05.126-.05.123-.051.118-.052.114-.051.11-.052.106-.052.101-.052.096-.052.092-.052.088-.053.083-.051.079-.052.074-.052.07-.051.065-.051.06-.051.056-.05.051-.05.023-.024.023-.025.021-.024.02-.024.019-.024.018-.024.017-.024.015-.023.014-.024.013-.023.012-.023.01-.023.01-.022.008-.022.006-.022.006-.022.004-.022.004-.021.001-.021.001-.021v-4.127l-.077.055-.08.053-.083.054-.085.053-.087.052-.09.052-.093.051-.095.05-.097.05-.1.049-.102.049-.105.048-.106.047-.109.047-.111.046-.114.045-.115.045-.118.044-.12.043-.122.042-.124.042-.126.041-.128.04-.13.04-.132.038-.134.038-.135.037-.138.037-.139.035-.142.035-.143.034-.144.033-.147.032-.148.031-.15.03-.151.03-.153.029-.154.027-.156.027-.158.026-.159.025-.161.024-.162.023-.163.022-.165.021-.166.02-.167.019-.169.018-.169.017-.171.016-.173.015-.173.014-.175.013-.175.012-.177.011-.178.01-.179.008-.179.008-.181.006-.182.005-.182.004-.184.003-.184.002h-.37l-.184-.002-.184-.003-.182-.004-.182-.005-.181-.006-.179-.008-.179-.008-.178-.01-.176-.011-.176-.012-.175-.013-.173-.014-.172-.015-.171-.016-.17-.017-.169-.018-.167-.019-.166-.02-.165-.021-.163-.022-.162-.023-.161-.024-.159-.025-.157-.026-.156-.027-.155-.027-.153-.029-.151-.03-.15-.03-.148-.031-.146-.032-.145-.033-.143-.034-.141-.035-.14-.035-.137-.037-.136-.037-.134-.038-.132-.038-.13-.04-.128-.04-.126-.041-.124-.042-.122-.042-.12-.044-.117-.043-.116-.045-.113-.045-.112-.046-.109-.047-.106-.047-.105-.048-.102-.049-.1-.049-.097-.05-.095-.05-.093-.052-.09-.051-.087-.052-.085-.053-.083-.054-.08-.054-.077-.054v4.127zm0-5.654v.011l.001.021.003.021.004.021.005.022.006.022.007.022.009.022.01.022.011.023.012.023.013.023.015.024.016.023.017.024.018.024.019.024.021.024.022.024.023.025.024.024.052.05.056.05.061.05.066.051.07.051.075.052.079.051.084.052.088.052.092.052.097.052.102.052.105.052.11.051.114.051.119.052.123.05.127.051.131.05.135.049.139.049.144.048.147.048.152.047.155.046.16.045.163.045.167.044.171.042.176.042.178.04.183.04.187.038.19.037.194.036.197.034.202.033.204.032.209.03.212.028.216.027.219.025.222.024.226.022.23.02.233.018.236.016.24.014.243.012.246.01.249.008.253.006.256.003.259.001.26-.001.257-.003.254-.006.25-.008.247-.01.244-.012.241-.015.237-.016.233-.018.231-.02.226-.022.224-.024.22-.025.216-.027.212-.029.21-.03.205-.032.202-.033.198-.035.194-.036.191-.037.187-.039.183-.039.179-.041.175-.042.172-.043.168-.044.163-.045.16-.045.155-.047.152-.047.148-.048.143-.048.139-.05.136-.049.131-.05.126-.051.123-.051.118-.051.114-.052.11-.052.106-.052.101-.052.096-.052.092-.052.088-.052.083-.052.079-.052.074-.051.07-.052.065-.051.06-.05.056-.051.051-.049.023-.025.023-.024.021-.025.02-.024.019-.024.018-.024.017-.024.015-.023.014-.023.013-.024.012-.022.01-.023.01-.023.008-.022.006-.022.006-.022.004-.021.004-.022.001-.021.001-.021v-4.139l-.077.054-.08.054-.083.054-.085.052-.087.053-.09.051-.093.051-.095.051-.097.05-.1.049-.102.049-.105.048-.106.047-.109.047-.111.046-.114.045-.115.044-.118.044-.12.044-.122.042-.124.042-.126.041-.128.04-.13.039-.132.039-.134.038-.135.037-.138.036-.139.036-.142.035-.143.033-.144.033-.147.033-.148.031-.15.03-.151.03-.153.028-.154.028-.156.027-.158.026-.159.025-.161.024-.162.023-.163.022-.165.021-.166.02-.167.019-.169.018-.169.017-.171.016-.173.015-.173.014-.175.013-.175.012-.177.011-.178.009-.179.009-.179.007-.181.007-.182.005-.182.004-.184.003-.184.002h-.37l-.184-.002-.184-.003-.182-.004-.182-.005-.181-.007-.179-.007-.179-.009-.178-.009-.176-.011-.176-.012-.175-.013-.173-.014-.172-.015-.171-.016-.17-.017-.169-.018-.167-.019-.166-.02-.165-.021-.163-.022-.162-.023-.161-.024-.159-.025-.157-.026-.156-.027-.155-.028-.153-.028-.151-.03-.15-.03-.148-.031-.146-.033-.145-.033-.143-.033-.141-.035-.14-.036-.137-.036-.136-.037-.134-.038-.132-.039-.13-.039-.128-.04-.126-.041-.124-.042-.122-.043-.12-.043-.117-.044-.116-.044-.113-.046-.112-.046-.109-.046-.106-.047-.105-.048-.102-.049-.1-.049-.097-.05-.095-.051-.093-.051-.09-.051-.087-.053-.085-.052-.083-.054-.08-.054-.077-.054v4.139zm0-5.666v.011l.001.02.003.022.004.021.005.022.006.021.007.022.009.023.01.022.011.023.012.023.013.023.015.023.016.024.017.024.018.023.019.024.021.025.022.024.023.024.024.025.052.05.056.05.061.05.066.051.07.051.075.052.079.051.084.052.088.052.092.052.097.052.102.052.105.051.11.052.114.051.119.051.123.051.127.05.131.05.135.05.139.049.144.048.147.048.152.047.155.046.16.045.163.045.167.043.171.043.176.042.178.04.183.04.187.038.19.037.194.036.197.034.202.033.204.032.209.03.212.028.216.027.219.025.222.024.226.021.23.02.233.018.236.017.24.014.243.012.246.01.249.008.253.006.256.003.259.001.26-.001.257-.003.254-.006.25-.008.247-.01.244-.013.241-.014.237-.016.233-.018.231-.02.226-.022.224-.024.22-.025.216-.027.212-.029.21-.03.205-.032.202-.033.198-.035.194-.036.191-.037.187-.039.183-.039.179-.041.175-.042.172-.043.168-.044.163-.045.16-.045.155-.047.152-.047.148-.048.143-.049.139-.049.136-.049.131-.051.126-.05.123-.051.118-.052.114-.051.11-.052.106-.052.101-.052.096-.052.092-.052.088-.052.083-.052.079-.052.074-.052.07-.051.065-.051.06-.051.056-.05.051-.049.023-.025.023-.025.021-.024.02-.024.019-.024.018-.024.017-.024.015-.023.014-.024.013-.023.012-.023.01-.022.01-.023.008-.022.006-.022.006-.022.004-.022.004-.021.001-.021.001-.021v-4.153l-.077.054-.08.054-.083.053-.085.053-.087.053-.09.051-.093.051-.095.051-.097.05-.1.049-.102.048-.105.048-.106.048-.109.046-.111.046-.114.046-.115.044-.118.044-.12.043-.122.043-.124.042-.126.041-.128.04-.13.039-.132.039-.134.038-.135.037-.138.036-.139.036-.142.034-.143.034-.144.033-.147.032-.148.032-.15.03-.151.03-.153.028-.154.028-.156.027-.158.026-.159.024-.161.024-.162.023-.163.023-.165.021-.166.02-.167.019-.169.018-.169.017-.171.016-.173.015-.173.014-.175.013-.175.012-.177.01-.178.01-.179.009-.179.007-.181.006-.182.006-.182.004-.184.003-.184.001-.185.001-.185-.001-.184-.001-.184-.003-.182-.004-.182-.006-.181-.006-.179-.007-.179-.009-.178-.01-.176-.01-.176-.012-.175-.013-.173-.014-.172-.015-.171-.016-.17-.017-.169-.018-.167-.019-.166-.02-.165-.021-.163-.023-.162-.023-.161-.024-.159-.024-.157-.026-.156-.027-.155-.028-.153-.028-.151-.03-.15-.03-.148-.032-.146-.032-.145-.033-.143-.034-.141-.034-.14-.036-.137-.036-.136-.037-.134-.038-.132-.039-.13-.039-.128-.041-.126-.041-.124-.041-.122-.043-.12-.043-.117-.044-.116-.044-.113-.046-.112-.046-.109-.046-.106-.048-.105-.048-.102-.048-.1-.05-.097-.049-.095-.051-.093-.051-.09-.052-.087-.052-.085-.053-.083-.053-.08-.054-.077-.054v4.153zm8.74-8.179l-.257.004-.254.005-.25.008-.247.011-.244.012-.241.014-.237.016-.233.018-.231.021-.226.022-.224.023-.22.026-.216.027-.212.028-.21.031-.205.032-.202.033-.198.034-.194.036-.191.038-.187.038-.183.04-.179.041-.175.042-.172.043-.168.043-.163.045-.16.046-.155.046-.152.048-.148.048-.143.048-.139.049-.136.05-.131.05-.126.051-.123.051-.118.051-.114.052-.11.052-.106.052-.101.052-.096.052-.092.052-.088.052-.083.052-.079.052-.074.051-.07.052-.065.051-.06.05-.056.05-.051.05-.023.025-.023.024-.021.024-.02.025-.019.024-.018.024-.017.023-.015.024-.014.023-.013.023-.012.023-.01.023-.01.022-.008.022-.006.023-.006.021-.004.022-.004.021-.001.021-.001.021.001.021.001.021.004.021.004.022.006.021.006.023.008.022.01.022.01.023.012.023.013.023.014.023.015.024.017.023.018.024.019.024.02.025.021.024.023.024.023.025.051.05.056.05.06.05.065.051.07.052.074.051.079.052.083.052.088.052.092.052.096.052.101.052.106.052.11.052.114.052.118.051.123.051.126.051.131.05.136.05.139.049.143.048.148.048.152.048.155.046.16.046.163.045.168.043.172.043.175.042.179.041.183.04.187.038.191.038.194.036.198.034.202.033.205.032.21.031.212.028.216.027.22.026.224.023.226.022.231.021.233.018.237.016.241.014.244.012.247.011.25.008.254.005.257.004.26.001.26-.001.257-.004.254-.005.25-.008.247-.011.244-.012.241-.014.237-.016.233-.018.231-.021.226-.022.224-.023.22-.026.216-.027.212-.028.21-.031.205-.032.202-.033.198-.034.194-.036.191-.038.187-.038.183-.04.179-.041.175-.042.172-.043.168-.043.163-.045.16-.046.155-.046.152-.048.148-.048.143-.048.139-.049.136-.05.131-.05.126-.051.123-.051.118-.051.114-.052.11-.052.106-.052.101-.052.096-.052.092-.052.088-.052.083-.052.079-.052.074-.051.07-.052.065-.051.06-.05.056-.05.051-.05.023-.025.023-.024.021-.024.02-.025.019-.024.018-.024.017-.023.015-.024.014-.023.013-.023.012-.023.01-.023.01-.022.008-.022.006-.023.006-.021.004-.022.004-.021.001-.021.001-.021-.001-.021-.001-.021-.004-.021-.004-.022-.006-.021-.006-.023-.008-.022-.01-.022-.01-.023-.012-.023-.013-.023-.014-.023-.015-.024-.017-.023-.018-.024-.019-.024-.02-.025-.021-.024-.023-.024-.023-.025-.051-.05-.056-.05-.06-.05-.065-.051-.07-.052-.074-.051-.079-.052-.083-.052-.088-.052-.092-.052-.096-.052-.101-.052-.106-.052-.11-.052-.114-.052-.118-.051-.123-.051-.126-.051-.131-.05-.136-.05-.139-.049-.143-.048-.148-.048-.152-.048-.155-.046-.16-.046-.163-.045-.168-.043-.172-.043-.175-.042-.179-.041-.183-.04-.187-.038-.191-.038-.194-.036-.198-.034-.202-.033-.205-.032-.21-.031-.212-.028-.216-.027-.22-.026-.224-.023-.226-.022-.231-.021-.233-.018-.237-.016-.241-.014-.244-.012-.247-.011-.25-.008-.254-.005-.257-.004-.26-.001-.26.001z" transform="scale(.5)"></path></symbol></defs><defs><symbol height="24" width="24" id="clock"><path d="M12 2c5.514 0 10 4.486 10 10s-4.486 10-10 10-10-4.486-10-10 4.486-10 10-10zm0-2c-6.627 0-12 5.373-12 12s5.373 12 12 12 12-5.373 12-12-5.373-12-12-12zm5.848 12.459c.202.038.202.333.001.372-1.907.361-6.045 1.111-6.547 1.111-.719 0-1.301-.582-1.301-1.301 0-.512.77-5.447 1.125-7.445.034-.192.312-.181.343.014l.985 6.238 5.394 1.011z" transform="scale(.5)"></path></symbol></defs><defs><marker orient="auto-start-reverse" markerHeight="12" markerWidth="12" markerUnits="userSpaceOnUse" refY="5" refX="7.9" id="arrowhead"><path d="M -1 0 L 10 5 L 0 10 z"></path></marker></defs><defs><marker refY="4.5" refX="4" orient="auto" markerHeight="8" markerWidth="15" id="crosshead"><path style="stroke-dasharray: 0, 0;" d="M 1,2 L 6,7 M 6,2 L 1,7" stroke-width="1pt" stroke="#000000" fill="none"></path></marker></defs><defs><marker orient="auto" markerHeight="28" markerWidth="20" refY="7" refX="15.5" id="filled-head"><path d="M 18,7 L9,13 L14,7 L9,1 Z"></path></marker></defs><defs><marker orient="auto" markerHeight="40" markerWidth="60" refY="15" refX="15" id="sequencenumber"><circle r="6" cy="15" cx="15"></circle></marker></defs><g><rect class="note" height="38" width="244" stroke="#666" fill="#EDF2AE" y="75" x="-47"></rect><text style="font-size: 16px; font-weight: 400;" dy="1em" class="noteText" alignment-baseline="middle" dominant-baseline="middle" text-anchor="middle" y="80" x="75"><tspan x="75">Control Cycle (100Hz - 10ms)</tspan></text></g><g><rect class="note" height="38" width="212" stroke="#666" fill="#EDF2AE" y="1825" x="-31"></rect><text style="font-size: 16px; font-weight: 400;" dy="1em" class="noteText" alignment-baseline="middle" dominant-baseline="middle" text-anchor="middle" y="1830" x="75"><tspan x="75">End of Cycle (10ms Total)</tspan></text></g><g><line class="loopLine" y2="1873" x2="164" y1="1873" x1="-12"></line><line class="loopLine" y2="2052" x2="164" y1="1873" x1="164"></line><line class="loopLine" y2="2052" x2="164" y1="2052" x1="-12"></line><line class="loopLine" y2="2052" x2="-12" y1="1873" x1="-12"></line><polygon class="labelBox" points="-12,1873 38,1873 38,1886 29.6,1893 -12,1893"></polygon><text style="font-size: 16px; font-weight: 400;" class="labelText" alignment-baseline="middle" dominant-baseline="middle" text-anchor="middle" y="1886" x="13">loop</text><text style="font-size: 16px; font-weight: 400;" class="loopText" text-anchor="middle" y="1891" x="101"><tspan x="101">[Every Control</tspan></text><text style="font-size: 16px; font-weight: 400;" class="loopText" text-anchor="middle" y="1909" x="101"><tspan x="101">Cycle]</tspan></text></g><g><rect class="note" height="38" width="214" stroke="#666" fill="#EDF2AE" y="2062" x="394"></rect><text style="font-size: 16px; font-weight: 400;" dy="1em" class="noteText" alignment-baseline="middle" dominant-baseline="middle" text-anchor="middle" y="2067" x="501"><tspan x="501">CAN Bus Communication</tspan></text></g><g><line class="loopLine" y2="2110" x2="2300.5" y1="2110" x1="279"></line><line class="loopLine" y2="2286" x2="2300.5" y1="2110" x1="2300.5"></line><line class="loopLine" y2="2286" x2="2300.5" y1="2286" x1="279"></line><line class="loopLine" y2="2286" x2="279" y1="2110" x1="279"></line><polygon class="labelBox" points="279,2110 329,2110 329,2123 320.6,2130 279,2130"></polygon><text style="font-size: 16px; font-weight: 400;" class="labelText" alignment-baseline="middle" dominant-baseline="middle" text-anchor="middle" y="2123" x="304">loop</text><text style="font-size: 16px; font-weight: 400;" class="loopText" text-anchor="middle" y="2128" x="1314.75"><tspan x="1314.75">[Async CAN Processing]</tspan></text></g><g><rect class="note" height="38" width="168" stroke="#666" fill="#EDF2AE" y="2296" x="1319"></rect><text style="font-size: 16px; font-weight: 400;" dy="1em" class="noteText" alignment-baseline="middle" dominant-baseline="middle" text-anchor="middle" y="2301" x="1403"><tspan x="1403">Predictive Horizon</tspan></text></g><g><line class="loopLine" y2="2344" x2="1380" y1="2344" x1="1210"></line><line class="loopLine" y2="2604" x2="1380" y1="2344" x1="1380"></line><line class="loopLine" y2="2604" x2="1380" y1="2604" x1="1210"></line><line class="loopLine" y2="2604" x2="1210" y1="2344" x1="1210"></line><polygon class="labelBox" points="1210,2344 1260,2344 1260,2357 1251.6,2364 1210,2364"></polygon><text style="font-size: 16px; font-weight: 400;" class="labelText" alignment-baseline="middle" dominant-baseline="middle" text-anchor="middle" y="2357" x="1235">loop</text><text style="font-size: 16px; font-weight: 400;" class="loopText" text-anchor="middle" y="2362" x="1320"><tspan x="1320">[Background</tspan></text><text style="font-size: 16px; font-weight: 400;" class="loopText" text-anchor="middle" y="2380" x="1320"><tspan x="1320">Prediction]</tspan></text></g><g><rect class="note" height="38" width="199" stroke="#666" fill="#EDF2AE" y="2614" x="2314.5"></rect><text style="font-size: 16px; font-weight: 400;" dy="1em" class="noteText" alignment-baseline="middle" dominant-baseline="middle" text-anchor="middle" y="2619" x="2414"><tspan x="2414">Continuous Monitoring</tspan></text></g><g><line class="loopLine" y2="2662" x2="2383" y1="2662" x1="2198"></line><line class="loopLine" y2="2920" x2="2383" y1="2662" x1="2383"></line><line class="loopLine" y2="2920" x2="2383" y1="2920" x1="2198"></line><line class="loopLine" y2="2920" x2="2198" y1="2662" x1="2198"></line><polygon class="labelBox" points="2198,2662 2248,2662 2248,2675 2239.6,2682 2198,2682"></polygon><text style="font-size: 16px; font-weight: 400;" class="labelText" alignment-baseline="middle" dominant-baseline="middle" text-anchor="middle" y="2675" x="2223">loop</text><text style="font-size: 16px; font-weight: 400;" class="loopText" text-anchor="middle" y="2680" x="2315.5"><tspan x="2315.5">[Real-time</tspan></text><text style="font-size: 16px; font-weight: 400;" class="loopText" text-anchor="middle" y="2698" x="2315.5"><tspan x="2315.5">Diagnostics]</tspan></text></g><text style="font-size: 16px; font-weight: 400;" dy="1em" class="messageText" alignment-baseline="middle" dominant-baseline="middle" text-anchor="middle" y="128" x="221">1. Request Engine Data (1ms)</text><line style="fill: none;" marker-end="url(#arrowhead)" stroke="none" stroke-width="2" class="messageLine0" y2="165" x2="365" y1="165" x1="76"></line><text style="font-size: 16px; font-weight: 400;" dy="1em" class="messageText" alignment-baseline="middle" dominant-baseline="middle" text-anchor="middle" y="180" x="370">1.1 Send J1939 Request Msgs</text><path style="fill: none;" marker-end="url(#arrowhead)" stroke="none" stroke-width="2" class="messageLine0" d="M 370,217 C 430,207 430,247 370,237"></path><text style="font-size: 16px; font-weight: 400;" dy="1em" class="messageText" alignment-baseline="middle" dominant-baseline="middle" text-anchor="middle" y="262" x="370">1.2 Receive ECU Responses</text><path style="fill: none;" marker-end="url(#arrowhead)" stroke="none" stroke-width="2" class="messageLine0" d="M 370,297 C 430,287 430,327 370,317"></path><text style="font-size: 16px; font-weight: 400;" dy="1em" class="messageText" alignment-baseline="middle" dominant-baseline="middle" text-anchor="middle" y="342" x="500">2. Raw CAN Data (2ms)</text><line style="fill: none;" marker-end="url(#arrowhead)" stroke="none" stroke-width="2" class="messageLine0" y2="377" x2="629" y1="377" x1="370"></line><text style="font-size: 16px; font-weight: 400;" dy="1em" class="messageText" alignment-baseline="middle" dominant-baseline="middle" text-anchor="middle" y="392" x="858">2.1 Fused Sensor Data</text><line style="fill: none;" marker-end="url(#arrowhead)" stroke="none" stroke-width="2" class="messageLine0" y2="427" x2="1081" y1="427" x1="634"></line><text style="font-size: 16px; font-weight: 400;" dy="1em" class="messageText" alignment-baseline="middle" dominant-baseline="middle" text-anchor="middle" y="442" x="861">2.2 Filtered States</text><line style="stroke-dasharray: 3, 3; fill: none;" marker-end="url(#arrowhead)" stroke="none" stroke-width="2" class="messageLine1" y2="477" x2="637" y1="477" x1="1084"></line><text style="font-size: 16px; font-weight: 400;" dy="1em" class="messageText" alignment-baseline="middle" dominant-baseline="middle" text-anchor="middle" y="492" x="758">3. Load Detection (3ms)</text><line style="fill: none;" marker-end="url(#arrowhead)" stroke="none" stroke-width="2" class="messageLine0" y2="527" x2="881" y1="527" x1="634"></line><text style="font-size: 16px; font-weight: 400;" dy="1em" class="messageText" alignment-baseline="middle" dominant-baseline="middle" text-anchor="middle" y="542" x="886">3.1 Analyze CAN Patterns</text><path style="fill: none;" marker-end="url(#arrowhead)" stroke="none" stroke-width="2" class="messageLine0" d="M 886,579 C 946,569 946,609 886,599"></path><text style="font-size: 16px; font-weight: 400;" dy="1em" class="messageText" alignment-baseline="middle" dominant-baseline="middle" text-anchor="middle" y="624" x="886">3.2 Detect Load Changes</text><path style="fill: none;" marker-end="url(#arrowhead)" stroke="none" stroke-width="2" class="messageLine0" d="M 886,661 C 946,651 946,691 886,681"></path><text style="font-size: 16px; font-weight: 400;" dy="1em" class="messageText" alignment-baseline="middle" dominant-baseline="middle" text-anchor="middle" y="706" x="1088">3.3 Load Classification</text><line style="stroke-dasharray: 3, 3; fill: none;" marker-end="url(#arrowhead)" stroke="none" stroke-width="2" class="messageLine1" y2="741" x2="1290" y1="741" x1="886"></line><text style="font-size: 16px; font-weight: 400;" dy="1em" class="messageText" alignment-baseline="middle" dominant-baseline="middle" text-anchor="middle" y="756" x="683">4. Predictive Analysis (4ms)</text><line style="fill: none;" marker-end="url(#arrowhead)" stroke="none" stroke-width="2" class="messageLine0" y2="793" x2="1290" y1="793" x1="76"></line><text style="font-size: 16px; font-weight: 400;" dy="1em" class="messageText" alignment-baseline="middle" dominant-baseline="middle" text-anchor="middle" y="808" x="1565">4.1 Future Load Prediction</text><line style="fill: none;" marker-end="url(#arrowhead)" stroke="none" stroke-width="2" class="messageLine0" y2="843" x2="1835" y1="843" x1="1295"></line><text style="font-size: 16px; font-weight: 400;" dy="1em" class="messageText" alignment-baseline="middle" dominant-baseline="middle" text-anchor="middle" y="858" x="1423">4.2 Optimal Ratio Advice</text><line style="fill: none;" marker-end="url(#arrowhead)" stroke="none" stroke-width="2" class="messageLine0" y2="893" x2="1550" y1="893" x1="1295"></line><text style="font-size: 16px; font-weight: 400;" dy="1em" class="messageText" alignment-baseline="middle" dominant-baseline="middle" text-anchor="middle" y="908" x="813">5. Protocol Adaptation (5ms)</text><line style="fill: none;" marker-end="url(#arrowhead)" stroke="none" stroke-width="2" class="messageLine0" y2="943" x2="1550" y1="943" x1="76"></line><text style="font-size: 16px; font-weight: 400;" dy="1em" class="messageText" alignment-baseline="middle" dominant-baseline="middle" text-anchor="middle" y="958" x="1555">5.1 Auto-Detect Protocol</text><path style="fill: none;" marker-end="url(#arrowhead)" stroke="none" stroke-width="2" class="messageLine0" d="M 1555,993 C 1615,983 1615,1023 1555,1013"></path><text style="font-size: 16px; font-weight: 400;" dy="1em" class="messageText" alignment-baseline="middle" dominant-baseline="middle" text-anchor="middle" y="1038" x="1555">5.2 Manufacturer-Specific Logic</text><path style="fill: none;" marker-end="url(#arrowhead)" stroke="none" stroke-width="2" class="messageLine0" d="M 1555,1075 C 1615,1065 1615,1105 1555,1095"></path><text style="font-size: 16px; font-weight: 400;" dy="1em" class="messageText" alignment-baseline="middle" dominant-baseline="middle" text-anchor="middle" y="1120" x="1695">5.3 CVT Status Data</text><line style="stroke-dasharray: 3, 3; fill: none;" marker-end="url(#arrowhead)" stroke="none" stroke-width="2" class="messageLine1" y2="1155" x2="1835" y1="1155" x1="1555"></line><text style="font-size: 16px; font-weight: 400;" dy="1em" class="messageText" alignment-baseline="middle" dominant-baseline="middle" text-anchor="middle" y="1170" x="956">6. Energy Management (6ms)</text><line style="fill: none;" marker-end="url(#arrowhead)" stroke="none" stroke-width="2" class="messageLine0" y2="1207" x2="1835" y1="1207" x1="76"></line><text style="font-size: 16px; font-weight: 400;" dy="1em" class="messageText" alignment-baseline="middle" dominant-baseline="middle" text-anchor="middle" y="1222" x="1960">6.1 Torque Distribution</text><line style="fill: none;" marker-end="url(#arrowhead)" stroke="none" stroke-width="2" class="messageLine0" y2="1257" x2="2080" y1="1257" x1="1840"></line><text style="font-size: 16px; font-weight: 400;" dy="1em" class="messageText" alignment-baseline="middle" dominant-baseline="middle" text-anchor="middle" y="1272" x="1698">6.2 Ratio Recommendations</text><line style="fill: none;" marker-end="url(#arrowhead)" stroke="none" stroke-width="2" class="messageLine0" y2="1307" x2="1558" y1="1307" x1="1838"></line><text style="font-size: 16px; font-weight: 400;" dy="1em" class="messageText" alignment-baseline="middle" dominant-baseline="middle" text-anchor="middle" y="1322" x="2063">6.3 Energy Efficiency Data</text><line style="fill: none;" marker-end="url(#arrowhead)" stroke="none" stroke-width="2" class="messageLine0" y2="1359" x2="2285.5" y1="1359" x1="1840"></line><text style="font-size: 16px; font-weight: 400;" dy="1em" class="messageText" alignment-baseline="middle" dominant-baseline="middle" text-anchor="middle" y="1374" x="1078">7. Transmission Control (7ms)</text><line style="fill: none;" marker-end="url(#arrowhead)" stroke="none" stroke-width="2" class="messageLine0" y2="1409" x2="2080" y1="1409" x1="76"></line><text style="font-size: 16px; font-weight: 400;" dy="1em" class="messageText" alignment-baseline="middle" dominant-baseline="middle" text-anchor="middle" y="1424" x="2310">7.1 Gear Shift Commands</text><line style="fill: none;" marker-end="url(#arrowhead)" stroke="none" stroke-width="2" class="messageLine0" y2="1459" x2="2534.5" y1="1459" x1="2085"></line><text style="font-size: 16px; font-weight: 400;" dy="1em" class="messageText" alignment-baseline="middle" dominant-baseline="middle" text-anchor="middle" y="1474" x="1963">7.2 Shift Coordination</text><line style="fill: none;" marker-end="url(#arrowhead)" stroke="none" stroke-width="2" class="messageLine0" y2="1509" x2="1843" y1="1509" x1="2083"></line><text style="font-size: 16px; font-weight: 400;" dy="1em" class="messageText" alignment-baseline="middle" dominant-baseline="middle" text-anchor="middle" y="1524" x="1305">8. Actuation (8ms)</text><line style="fill: none;" marker-end="url(#arrowhead)" stroke="none" stroke-width="2" class="messageLine0" y2="1559" x2="2534.5" y1="1559" x1="76"></line><text style="font-size: 16px; font-weight: 400;" dy="1em" class="messageText" alignment-baseline="middle" dominant-baseline="middle" text-anchor="middle" y="1574" x="1455">8.1 Send Control Messages</text><line style="fill: none;" marker-end="url(#arrowhead)" stroke="none" stroke-width="2" class="messageLine0" y2="1611" x2="373" y1="1611" x1="2537.5"></line><text style="font-size: 16px; font-weight: 400;" dy="1em" class="messageText" alignment-baseline="middle" dominant-baseline="middle" text-anchor="middle" y="1626" x="1452">8.2 Delivery Confirmations</text><line style="stroke-dasharray: 3, 3; fill: none;" marker-end="url(#arrowhead)" stroke="none" stroke-width="2" class="messageLine1" y2="1663" x2="2534.5" y1="1663" x1="370"></line><text style="font-size: 16px; font-weight: 400;" dy="1em" class="messageText" alignment-baseline="middle" dominant-baseline="middle" text-anchor="middle" y="1678" x="1181">9. System Monitoring (9ms)</text><line style="fill: none;" marker-end="url(#arrowhead)" stroke="none" stroke-width="2" class="messageLine0" y2="1715" x2="2285.5" y1="1715" x1="76"></line><text style="font-size: 16px; font-weight: 400;" dy="1em" class="messageText" alignment-baseline="middle" dominant-baseline="middle" text-anchor="middle" y="1730" x="2513">9.1 Health Checks</text><line style="fill: none;" marker-end="url(#arrowhead)" stroke="none" stroke-width="2" class="messageLine0" y2="1765" x2="2734.5" y1="1765" x1="2290.5"></line><text style="font-size: 16px; font-weight: 400;" dy="1em" class="messageText" alignment-baseline="middle" dominant-baseline="middle" text-anchor="middle" y="1780" x="1184">9.2 Fault Reports</text><line style="fill: none;" marker-end="url(#arrowhead)" stroke="none" stroke-width="2" class="messageLine0" y2="1815" x2="79" y1="1815" x1="2288.5"></line><text style="font-size: 16px; font-weight: 400;" dy="1em" class="messageText" alignment-baseline="middle" dominant-baseline="middle" text-anchor="middle" y="1945" x="76">Schedule Next Cycle</text><path style="fill: none;" marker-end="url(#arrowhead)" stroke="none" stroke-width="2" class="messageLine0" d="M 76,1982 C 136,1972 136,2012 76,2002"></path><text style="font-size: 16px; font-weight: 400;" dy="1em" class="messageText" alignment-baseline="middle" dominant-baseline="middle" text-anchor="middle" y="2161" x="370">Process Rx/Tx Buffers</text><path style="fill: none;" marker-end="url(#arrowhead)" stroke="none" stroke-width="2" class="messageLine0" d="M 370,2196 C 430,2186 430,2226 370,2216"></path><text style="font-size: 16px; font-weight: 400;" dy="1em" class="messageText" alignment-baseline="middle" dominant-baseline="middle" text-anchor="middle" y="2241" x="1328">Report Bus Errors</text><line style="fill: none;" marker-end="url(#arrowhead)" stroke="none" stroke-width="2" class="messageLine0" y2="2276" x2="2285.5" y1="2276" x1="370"></line><text style="font-size: 16px; font-weight: 400;" dy="1em" class="messageText" alignment-baseline="middle" dominant-baseline="middle" text-anchor="middle" y="2415" x="1295">Terrain Analysis</text><path style="fill: none;" marker-end="url(#arrowhead)" stroke="none" stroke-width="2" class="messageLine0" d="M 1295,2452 C 1355,2442 1355,2482 1295,2472"></path><text style="font-size: 16px; font-weight: 400;" dy="1em" class="messageText" alignment-baseline="middle" dominant-baseline="middle" text-anchor="middle" y="2497" x="1295">Load Forecasting</text><path style="fill: none;" marker-end="url(#arrowhead)" stroke="none" stroke-width="2" class="messageLine0" d="M 1295,2534 C 1355,2524 1355,2564 1295,2554"></path><text style="font-size: 16px; font-weight: 400;" dy="1em" class="messageText" alignment-baseline="middle" dominant-baseline="middle" text-anchor="middle" y="2733" x="2291">Fault Detection</text><path style="fill: none;" marker-end="url(#arrowhead)" stroke="none" stroke-width="2" class="messageLine0" d="M 2290.5,2768 C 2350.5,2758 2350.5,2798 2290.5,2788"></path><text style="font-size: 16px; font-weight: 400;" dy="1em" class="messageText" alignment-baseline="middle" dominant-baseline="middle" text-anchor="middle" y="2813" x="2291">Performance Logging</text><path style="fill: none;" marker-end="url(#arrowhead)" stroke="none" stroke-width="2" class="messageLine0" d="M 2290.5,2850 C 2350.5,2840 2350.5,2880 2290.5,2870"></path></svg>